<?xml version="1.0" encoding="UTF-8" standalone="yes"?><svg xmlns="http://www.w3.org/2000/svg" xmlns:xlink="http://www.w3.org/1999/xlink" height="461px" style="width:549px;height:461px;" version="1.1" viewBox="0 0 549 461" width="549px"><defs><filter height="300%" id="f1" width="300%" x="-1" y="-1"><feGaussianBlur result="blurOut" stdDeviation="2.0"/><feColorMatrix in="blurOut" result="blurOut2" type="matrix" values="0 0 0 0 0 0 0 0 0 0 0 0 0 0 0 0 0 0 .4 0"/><feOffset dx="4.0" dy="4.0" in="blurOut2" result="blurOut3"/><feBlend in="SourceGraphic" in2="blurOut3" mode="normal"/></filter></defs><g><polygon fill="#FEFECE" filter="url(#f1)" points="284.5,11.7754,334.5,11.7754,346.5,23.7754,334.5,35.7754,284.5,35.7754,272.5,23.7754,284.5,11.7754" style="stroke: #A80036; stroke-width: 1.5;"/><text fill="#000000" font-family="sans-serif" font-size="11" lengthAdjust="spacingAndGlyphs" textLength="50" x="284.5" y="27.9326">valid job?</text><text fill="#000000" font-family="sans-serif" font-size="11" lengthAdjust="spacingAndGlyphs" textLength="32" x="240.5" y="21.4551">VALID</text><text fill="#000000" font-family="sans-serif" font-size="11" lengthAdjust="spacingAndGlyphs" textLength="43" x="346.5" y="21.4551">INVALID</text><rect fill="#FEFECE" filter="url(#f1)" height="34.1328" style="stroke: #A80036; stroke-width: 1.5;" width="119" x="85.5" y="45.7754"/><line style="stroke: #A80036; stroke-width: 1.5;" x1="90.5" x2="90.5" y1="45.7754" y2="79.9082"/><line style="stroke: #A80036; stroke-width: 1.5;" x1="199.5" x2="199.5" y1="45.7754" y2="79.9082"/><text fill="#000000" font-family="sans-serif" font-size="12" lengthAdjust="spacingAndGlyphs" textLength="99" x="95.5" y="67.377">clientWorkflowOff</text><polygon fill="#FEFECE" filter="url(#f1)" points="93,99.9082,197,99.9082,209,111.9082,197,123.9082,93,123.9082,81,111.9082,93,99.9082" style="stroke: #A80036; stroke-width: 1.5;"/><text fill="#000000" font-family="sans-serif" font-size="11" lengthAdjust="spacingAndGlyphs" textLength="104" x="93" y="116.0654">delete before write?</text><text fill="#000000" font-family="sans-serif" font-size="11" lengthAdjust="spacingAndGlyphs" textLength="19" x="62" y="109.5879">YES</text><text fill="#000000" font-family="sans-serif" font-size="11" lengthAdjust="spacingAndGlyphs" textLength="17" x="209" y="109.5879">NO</text><rect fill="#FEFECE" filter="url(#f1)" height="34.1328" style="stroke: #A80036; stroke-width: 1.5;" width="122" x="10" y="133.9082"/><line style="stroke: #A80036; stroke-width: 1.5;" x1="15" x2="15" y1="133.9082" y2="168.041"/><line style="stroke: #A80036; stroke-width: 1.5;" x1="127" x2="127" y1="133.9082" y2="168.041"/><text fill="#000000" font-family="sans-serif" font-size="12" lengthAdjust="spacingAndGlyphs" textLength="102" x="20" y="155.5098">deleteBeforeWrite</text><polygon fill="#FEFECE" filter="url(#f1)" points="145,174.041,157,186.041,145,198.041,133,186.041,145,174.041" style="stroke: #A80036; stroke-width: 1.5;"/><rect fill="#FEFECE" filter="url(#f1)" height="34.1328" style="stroke: #A80036; stroke-width: 1.5;" width="134" x="78" y="218.041"/><line style="stroke: #A80036; stroke-width: 1.5;" x1="83" x2="83" y1="218.041" y2="252.1738"/><line style="stroke: #A80036; stroke-width: 1.5;" x1="207" x2="207" y1="218.041" y2="252.1738"/><text fill="#000000" font-family="sans-serif" font-size="12" lengthAdjust="spacingAndGlyphs" textLength="114" x="88" y="239.6426">startHttpConnection</text><rect fill="#FEFECE" filter="url(#f1)" height="34.1328" style="stroke: #A80036; stroke-width: 1.5;" width="143" x="73.5" y="272.1738"/><line style="stroke: #A80036; stroke-width: 1.5;" x1="78.5" x2="78.5" y1="272.1738" y2="306.3066"/><line style="stroke: #A80036; stroke-width: 1.5;" x1="211.5" x2="211.5" y1="272.1738" y2="306.3066"/><text fill="#000000" font-family="sans-serif" font-size="12" lengthAdjust="spacingAndGlyphs" textLength="123" x="83.5" y="293.7754">clientNamespaceSync</text><polygon fill="#FBFB77" filter="url(#f1)" points="216,330.7178,216,356.0283,386,356.0283,386,340.7178,376,330.7178,216,330.7178" style="stroke: #A80036; stroke-width: 1.0;"/><polygon fill="#FBFB77" points="216,330.7178,216,339.373,196,343.373,216,347.373,216,356.0283,386,356.0283,386,340.7178,376,330.7178,216,330.7178" style="stroke: #A80036; stroke-width: 1.0;"/><line style="stroke: #A80036; stroke-width: 1.0;" x1="376" x2="376" y1="330.7178" y2="340.7178"/><line style="stroke: #A80036; stroke-width: 1.0;" x1="386" x2="376" y1="340.7178" y2="340.7178"/><text fill="#000000" font-family="sans-serif" font-size="13" lengthAdjust="spacingAndGlyphs" textLength="149" x="222" y="348.2861">send "chunks" of nodes</text><rect fill="#FEFECE" filter="url(#f1)" height="34.1328" rx="12.5" ry="12.5" style="stroke: #A80036; stroke-width: 1.5;" width="102" x="94" y="326.3066"/><text fill="#000000" font-family="sans-serif" font-size="12" lengthAdjust="spacingAndGlyphs" textLength="82" x="104" y="347.9082">clientJcrNodes</text><rect fill="#FEFECE" filter="url(#f1)" height="34.1328" style="stroke: #A80036; stroke-width: 1.5;" width="118" x="86" y="380.4395"/><line style="stroke: #A80036; stroke-width: 1.5;" x1="91" x2="91" y1="380.4395" y2="414.5723"/><line style="stroke: #A80036; stroke-width: 1.5;" x1="199" x2="199" y1="380.4395" y2="414.5723"/><text fill="#000000" font-family="sans-serif" font-size="12" lengthAdjust="spacingAndGlyphs" textLength="98" x="96" y="402.041">clientWorkflowOn</text><ellipse cx="145" cy="444.5723" fill="none" filter="url(#f1)" rx="10" ry="10" style="stroke: #000000; stroke-width: 1.0;"/><ellipse cx="145.5" cy="445.0723" fill="#000000" filter="url(#f1)" rx="6" ry="6" style="stroke: none; stroke-width: 1.0;"/><polygon fill="#FEFECE" filter="url(#f1)" points="406,45.7754,532,45.7754,542,79.9082,416,79.9082" style="stroke: #A80036; stroke-width: 1.5;"/><text fill="#000000" font-family="sans-serif" font-size="12" lengthAdjust="spacingAndGlyphs" textLength="116" x="416" y="67.377">VALIDATION_FAILED</text><ellipse cx="474" cy="109.9082" fill="#FFFFFF" filter="url(#f1)" rx="10" ry="10" style="stroke: #000000; stroke-width: 1.5;"/><line style="stroke: #000000; stroke-width: 2.5;" x1="467.8128" x2="480.1872" y1="103.721" y2="116.0954"/><line style="stroke: #000000; stroke-width: 2.5;" x1="480.1872" x2="467.8128" y1="103.721" y2="116.0954"/><line style="stroke: #A80036; stroke-width: 1.5;" x1="81" x2="71" y1="111.9082" y2="111.9082"/><line style="stroke: #A80036; stroke-width: 1.5;" x1="71" x2="71" y1="111.9082" y2="133.9082"/><polygon fill="#A80036" points="67,123.9082,71,133.9082,75,123.9082,71,127.9082" style="stroke: #A80036; stroke-width: 1.0;"/><line style="stroke: #A80036; stroke-width: 1.5;" x1="209" x2="219" y1="111.9082" y2="111.9082"/><polygon fill="#A80036" points="215,138.9746,219,148.9746,223,138.9746,219,142.9746" style="stroke: #A80036; stroke-width: 1.5;"/><line style="stroke: #A80036; stroke-width: 1.5;" x1="219" x2="219" y1="111.9082" y2="186.041"/><line style="stroke: #A80036; stroke-width: 1.5;" x1="219" x2="157" y1="186.041" y2="186.041"/><polygon fill="#A80036" points="167,182.041,157,186.041,167,190.041,163,186.041" style="stroke: #A80036; stroke-width: 1.0;"/><line style="stroke: #A80036; stroke-width: 1.5;" x1="71" x2="71" y1="168.041" y2="186.041"/><line style="stroke: #A80036; stroke-width: 1.5;" x1="71" x2="133" y1="186.041" y2="186.041"/><polygon fill="#A80036" points="123,182.041,133,186.041,123,190.041,127,186.041" style="stroke: #A80036; stroke-width: 1.0;"/><line style="stroke: #A80036; stroke-width: 1.5;" x1="145" x2="145" y1="79.9082" y2="99.9082"/><polygon fill="#A80036" points="141,89.9082,145,99.9082,149,89.9082,145,93.9082" style="stroke: #A80036; stroke-width: 1.0;"/><line style="stroke: #A80036; stroke-width: 1.5;" x1="145" x2="145" y1="198.041" y2="218.041"/><polygon fill="#A80036" points="141,208.041,145,218.041,149,208.041,145,212.041" style="stroke: #A80036; stroke-width: 1.0;"/><line style="stroke: #A80036; stroke-width: 1.5;" x1="145" x2="145" y1="252.1738" y2="272.1738"/><polygon fill="#A80036" points="141,262.1738,145,272.1738,149,262.1738,145,266.1738" style="stroke: #A80036; stroke-width: 1.0;"/><line style="stroke: #A80036; stroke-width: 1.5;" x1="145" x2="145" y1="306.3066" y2="326.3066"/><polygon fill="#A80036" points="141,316.3066,145,326.3066,149,316.3066,145,320.3066" style="stroke: #A80036; stroke-width: 1.0;"/><line style="stroke: #A80036; stroke-width: 1.5;" x1="145" x2="145" y1="360.4395" y2="380.4395"/><polygon fill="#A80036" points="141,370.4395,145,380.4395,149,370.4395,145,374.4395" style="stroke: #A80036; stroke-width: 1.0;"/><line style="stroke: #A80036; stroke-width: 1.5;" x1="145" x2="145" y1="414.5723" y2="434.5723"/><polygon fill="#A80036" points="141,424.5723,145,434.5723,149,424.5723,145,428.5723" style="stroke: #A80036; stroke-width: 1.0;"/><line style="stroke: #A80036; stroke-width: 1.5;" x1="474" x2="474" y1="79.9082" y2="99.9082"/><polygon fill="#A80036" points="470,89.9082,474,99.9082,478,89.9082,474,93.9082" style="stroke: #A80036; stroke-width: 1.0;"/><line style="stroke: #A80036; stroke-width: 1.5;" x1="272.5" x2="145" y1="23.7754" y2="23.7754"/><line style="stroke: #A80036; stroke-width: 1.5;" x1="145" x2="145" y1="23.7754" y2="45.7754"/><polygon fill="#A80036" points="141,35.7754,145,45.7754,149,35.7754,145,39.7754" style="stroke: #A80036; stroke-width: 1.0;"/><line style="stroke: #A80036; stroke-width: 1.5;" x1="346.5" x2="474" y1="23.7754" y2="23.7754"/><line style="stroke: #A80036; stroke-width: 1.5;" x1="474" x2="474" y1="23.7754" y2="45.7754"/><polygon fill="#A80036" points="470,35.7754,474,45.7754,478,35.7754,474,39.7754" style="stroke: #A80036; stroke-width: 1.0;"/></g></svg>