<?xml version="1.0" encoding="UTF-8" standalone="yes"?><svg xmlns="http://www.w3.org/2000/svg" xmlns:xlink="http://www.w3.org/1999/xlink" height="499px" style="width:549px;height:499px;" version="1.1" viewBox="0 0 549 499" width="549px"><defs><filter height="300%" id="f1" width="300%" x="-1" y="-1"><feGaussianBlur result="blurOut" stdDeviation="2.0"/><feColorMatrix in="blurOut" result="blurOut2" type="matrix" values="0 0 0 0 0 0 0 0 0 0 0 0 0 0 0 0 0 0 .4 0"/><feOffset dx="4.0" dy="4.0" in="blurOut2" result="blurOut3"/><feBlend in="SourceGraphic" in2="blurOut3" mode="normal"/></filter></defs><g><ellipse cx="309.5" cy="20" fill="#000000" filter="url(#f1)" rx="10" ry="10" style="stroke: none; stroke-width: 1.0;"/><polygon fill="#FEFECE" filter="url(#f1)" points="284.5,50,334.5,50,346.5,62,334.5,74,284.5,74,272.5,62,284.5,50" style="stroke: #A80036; stroke-width: 1.5;"/><text fill="#000000" font-family="sans-serif" font-size="11" lengthAdjust="spacingAndGlyphs" textLength="50" x="284.5" y="66.1572">valid job?</text><text fill="#000000" font-family="sans-serif" font-size="11" lengthAdjust="spacingAndGlyphs" textLength="32" x="240.5" y="59.6797">VALID</text><text fill="#000000" font-family="sans-serif" font-size="11" lengthAdjust="spacingAndGlyphs" textLength="43" x="346.5" y="59.6797">INVALID</text><rect fill="#FEFECE" filter="url(#f1)" height="34.1328" style="stroke: #A80036; stroke-width: 1.5;" width="119" x="85.5" y="84"/><line style="stroke: #A80036; stroke-width: 1.5;" x1="90.5" x2="90.5" y1="84" y2="118.1328"/><line style="stroke: #A80036; stroke-width: 1.5;" x1="199.5" x2="199.5" y1="84" y2="118.1328"/><text fill="#000000" font-family="sans-serif" font-size="12" lengthAdjust="spacingAndGlyphs" textLength="99" x="95.5" y="105.6016">clientWorkflowOff</text><polygon fill="#FEFECE" filter="url(#f1)" points="93,138.1328,197,138.1328,209,150.1328,197,162.1328,93,162.1328,81,150.1328,93,138.1328" style="stroke: #A80036; stroke-width: 1.5;"/><text fill="#000000" font-family="sans-serif" font-size="11" lengthAdjust="spacingAndGlyphs" textLength="104" x="93" y="154.29">delete before write?</text><text fill="#000000" font-family="sans-serif" font-size="11" lengthAdjust="spacingAndGlyphs" textLength="19" x="62" y="147.8125">YES</text><text fill="#000000" font-family="sans-serif" font-size="11" lengthAdjust="spacingAndGlyphs" textLength="17" x="209" y="147.8125">NO</text><rect fill="#FEFECE" filter="url(#f1)" height="34.1328" style="stroke: #A80036; stroke-width: 1.5;" width="122" x="10" y="172.1328"/><line style="stroke: #A80036; stroke-width: 1.5;" x1="15" x2="15" y1="172.1328" y2="206.2656"/><line style="stroke: #A80036; stroke-width: 1.5;" x1="127" x2="127" y1="172.1328" y2="206.2656"/><text fill="#000000" font-family="sans-serif" font-size="12" lengthAdjust="spacingAndGlyphs" textLength="102" x="20" y="193.7344">deleteBeforeWrite</text><polygon fill="#FEFECE" filter="url(#f1)" points="145,212.2656,157,224.2656,145,236.2656,133,224.2656,145,212.2656" style="stroke: #A80036; stroke-width: 1.5;"/><rect fill="#FEFECE" filter="url(#f1)" height="34.1328" style="stroke: #A80036; stroke-width: 1.5;" width="134" x="78" y="256.2656"/><line style="stroke: #A80036; stroke-width: 1.5;" x1="83" x2="83" y1="256.2656" y2="290.3984"/><line style="stroke: #A80036; stroke-width: 1.5;" x1="207" x2="207" y1="256.2656" y2="290.3984"/><text fill="#000000" font-family="sans-serif" font-size="12" lengthAdjust="spacingAndGlyphs" textLength="114" x="88" y="277.8672">startHttpConnection</text><rect fill="#FEFECE" filter="url(#f1)" height="34.1328" style="stroke: #A80036; stroke-width: 1.5;" width="143" x="73.5" y="310.3984"/><line style="stroke: #A80036; stroke-width: 1.5;" x1="78.5" x2="78.5" y1="310.3984" y2="344.5313"/><line style="stroke: #A80036; stroke-width: 1.5;" x1="211.5" x2="211.5" y1="310.3984" y2="344.5313"/><text fill="#000000" font-family="sans-serif" font-size="12" lengthAdjust="spacingAndGlyphs" textLength="123" x="83.5" y="332">clientNamespaceSync</text><polygon fill="#FBFB77" filter="url(#f1)" points="216,368.9424,216,394.2529,386,394.2529,386,378.9424,376,368.9424,216,368.9424" style="stroke: #A80036; stroke-width: 1.0;"/><polygon fill="#FBFB77" points="216,368.9424,216,377.5977,196,381.5977,216,385.5977,216,394.2529,386,394.2529,386,378.9424,376,368.9424,216,368.9424" style="stroke: #A80036; stroke-width: 1.0;"/><line style="stroke: #A80036; stroke-width: 1.0;" x1="376" x2="376" y1="368.9424" y2="378.9424"/><line style="stroke: #A80036; stroke-width: 1.0;" x1="386" x2="376" y1="378.9424" y2="378.9424"/><text fill="#000000" font-family="sans-serif" font-size="13" lengthAdjust="spacingAndGlyphs" textLength="149" x="222" y="386.5107">send "chunks" of nodes</text><rect fill="#FEFECE" filter="url(#f1)" height="34.1328" rx="12.5" ry="12.5" style="stroke: #A80036; stroke-width: 1.5;" width="102" x="94" y="364.5313"/><text fill="#000000" font-family="sans-serif" font-size="12" lengthAdjust="spacingAndGlyphs" textLength="82" x="104" y="386.1328">clientJcrNodes</text><rect fill="#FEFECE" filter="url(#f1)" height="34.1328" style="stroke: #A80036; stroke-width: 1.5;" width="118" x="86" y="418.6641"/><line style="stroke: #A80036; stroke-width: 1.5;" x1="91" x2="91" y1="418.6641" y2="452.7969"/><line style="stroke: #A80036; stroke-width: 1.5;" x1="199" x2="199" y1="418.6641" y2="452.7969"/><text fill="#000000" font-family="sans-serif" font-size="12" lengthAdjust="spacingAndGlyphs" textLength="98" x="96" y="440.2656">clientWorkflowOn</text><ellipse cx="145" cy="482.7969" fill="none" filter="url(#f1)" rx="10" ry="10" style="stroke: #000000; stroke-width: 1.0;"/><ellipse cx="145.5" cy="483.2969" fill="#000000" filter="url(#f1)" rx="6" ry="6" style="stroke: none; stroke-width: 1.0;"/><polygon fill="#FEFECE" filter="url(#f1)" points="406,84,532,84,542,118.1328,416,118.1328" style="stroke: #A80036; stroke-width: 1.5;"/><text fill="#000000" font-family="sans-serif" font-size="12" lengthAdjust="spacingAndGlyphs" textLength="116" x="416" y="105.6016">VALIDATION_FAILED</text><ellipse cx="474" cy="148.1328" fill="#FFFFFF" filter="url(#f1)" rx="10" ry="10" style="stroke: #000000; stroke-width: 1.5;"/><line style="stroke: #000000; stroke-width: 2.5;" x1="467.8128" x2="480.1872" y1="141.9456" y2="154.32"/><line style="stroke: #000000; stroke-width: 2.5;" x1="480.1872" x2="467.8128" y1="141.9456" y2="154.32"/><line style="stroke: #A80036; stroke-width: 1.5;" x1="81" x2="71" y1="150.1328" y2="150.1328"/><line style="stroke: #A80036; stroke-width: 1.5;" x1="71" x2="71" y1="150.1328" y2="172.1328"/><polygon fill="#A80036" points="67,162.1328,71,172.1328,75,162.1328,71,166.1328" style="stroke: #A80036; stroke-width: 1.0;"/><line style="stroke: #A80036; stroke-width: 1.5;" x1="209" x2="219" y1="150.1328" y2="150.1328"/><polygon fill="#A80036" points="215,177.1992,219,187.1992,223,177.1992,219,181.1992" style="stroke: #A80036; stroke-width: 1.5;"/><line style="stroke: #A80036; stroke-width: 1.5;" x1="219" x2="219" y1="150.1328" y2="224.2656"/><line style="stroke: #A80036; stroke-width: 1.5;" x1="219" x2="157" y1="224.2656" y2="224.2656"/><polygon fill="#A80036" points="167,220.2656,157,224.2656,167,228.2656,163,224.2656" style="stroke: #A80036; stroke-width: 1.0;"/><line style="stroke: #A80036; stroke-width: 1.5;" x1="71" x2="71" y1="206.2656" y2="224.2656"/><line style="stroke: #A80036; stroke-width: 1.5;" x1="71" x2="133" y1="224.2656" y2="224.2656"/><polygon fill="#A80036" points="123,220.2656,133,224.2656,123,228.2656,127,224.2656" style="stroke: #A80036; stroke-width: 1.0;"/><line style="stroke: #A80036; stroke-width: 1.5;" x1="145" x2="145" y1="118.1328" y2="138.1328"/><polygon fill="#A80036" points="141,128.1328,145,138.1328,149,128.1328,145,132.1328" style="stroke: #A80036; stroke-width: 1.0;"/><line style="stroke: #A80036; stroke-width: 1.5;" x1="145" x2="145" y1="236.2656" y2="256.2656"/><polygon fill="#A80036" points="141,246.2656,145,256.2656,149,246.2656,145,250.2656" style="stroke: #A80036; stroke-width: 1.0;"/><line style="stroke: #A80036; stroke-width: 1.5;" x1="145" x2="145" y1="290.3984" y2="310.3984"/><polygon fill="#A80036" points="141,300.3984,145,310.3984,149,300.3984,145,304.3984" style="stroke: #A80036; stroke-width: 1.0;"/><line style="stroke: #A80036; stroke-width: 1.5;" x1="145" x2="145" y1="344.5313" y2="364.5313"/><polygon fill="#A80036" points="141,354.5313,145,364.5313,149,354.5313,145,358.5313" style="stroke: #A80036; stroke-width: 1.0;"/><line style="stroke: #A80036; stroke-width: 1.5;" x1="145" x2="145" y1="398.6641" y2="418.6641"/><polygon fill="#A80036" points="141,408.6641,145,418.6641,149,408.6641,145,412.6641" style="stroke: #A80036; stroke-width: 1.0;"/><line style="stroke: #A80036; stroke-width: 1.5;" x1="145" x2="145" y1="452.7969" y2="472.7969"/><polygon fill="#A80036" points="141,462.7969,145,472.7969,149,462.7969,145,466.7969" style="stroke: #A80036; stroke-width: 1.0;"/><line style="stroke: #A80036; stroke-width: 1.5;" x1="474" x2="474" y1="118.1328" y2="138.1328"/><polygon fill="#A80036" points="470,128.1328,474,138.1328,478,128.1328,474,132.1328" style="stroke: #A80036; stroke-width: 1.0;"/><line style="stroke: #A80036; stroke-width: 1.5;" x1="272.5" x2="145" y1="62" y2="62"/><line style="stroke: #A80036; stroke-width: 1.5;" x1="145" x2="145" y1="62" y2="84"/><polygon fill="#A80036" points="141,74,145,84,149,74,145,78" style="stroke: #A80036; stroke-width: 1.0;"/><line style="stroke: #A80036; stroke-width: 1.5;" x1="346.5" x2="474" y1="62" y2="62"/><line style="stroke: #A80036; stroke-width: 1.5;" x1="474" x2="474" y1="62" y2="84"/><polygon fill="#A80036" points="470,74,474,84,478,74,474,78" style="stroke: #A80036; stroke-width: 1.0;"/><line style="stroke: #A80036; stroke-width: 1.5;" x1="309.5" x2="309.5" y1="30" y2="50"/><polygon fill="#A80036" points="305.5,40,309.5,50,313.5,40,309.5,44" style="stroke: #A80036; stroke-width: 1.0;"/></g></svg>