<?xml version="1.0" encoding="UTF-8" standalone="yes"?><svg xmlns="http://www.w3.org/2000/svg" xmlns:xlink="http://www.w3.org/1999/xlink" height="274px" style="width:488px;height:274px;" version="1.1" viewBox="0 0 488 274" width="488px"><defs><filter height="300%" id="f1" width="300%" x="-1" y="-1"><feGaussianBlur result="blurOut" stdDeviation="2.0"/><feColorMatrix in="blurOut" result="blurOut2" type="matrix" values="0 0 0 0 0 0 0 0 0 0 0 0 0 0 0 0 0 0 .4 0"/><feOffset dx="4.0" dy="4.0" in="blurOut2" result="blurOut3"/><feBlend in="SourceGraphic" in2="blurOut3" mode="normal"/></filter></defs><g><path d="M25,182 C25,179 27,177 30,177 C33,177 35,179 35,182 C35,179 37,177 40,177 C43,177 45,179 45,182 C45,179 47,177 50,177 C53,177 55,179 55,182 C55,179 57,177 60,177 C63,177 65,179 65,182 C65,179 67,177 70,177 C73,177 75,179 75,182 C75,179 77,177 80,177 C83,177 85,179 85,182 C85,179 87,177 90,177 C93,177 95,179 95,182 C95,179 97,177 100,177 C103,177 105,179 105,182 C105,179 107,177 110,177 C113,177 115,179 115,182 C115,179 117,177 120,177 C123,177 125,179 125,182 C125,179 127,177 130,177 C133,177 135,179 135,182 C135,179 137,177 140,177 C143,177 145,179 145,182 C145,179 147,177 150,177 C153,177 155,179 155,182 C155,179 157,177 160,177 C163,177 165,179 165,182 C165,179 167,177 170,177 C173,177 175,179 175,182 C175,179 177,177 180,177 C183,177 185,179 185,182 C188,182 190,184 190,187 C190,190 188,192 185,192 C188,192 190,194 190,197 C190,200 188,202 185,202 C188,202 190,204 190,207 C190,210 188,212 185,212 C188,212 190,214 190,217 C190,220 188,222 185,222 C188,222 190,224 190,227 C190,230 188,232 185,232 C188,232 190,234 190,237 C190,240 188,242 185,242 C188,242 190,244 190,247 C190,250 188,252 185,252 C188,252 190,254 190,257 C190,260 188,262 185,262 C185,265 182,267 180,267 C177,267 175,265 175,262 C175,265 172,267 170,267 C167,267 165,265 165,262 C165,265 162,267 160,267 C157,267 155,265 155,262 C155,265 152,267 150,267 C147,267 145,265 145,262 C145,265 142,267 140,267 C137,267 135,265 135,262 C135,265 132,267 130,267 C127,267 125,265 125,262 C125,265 122,267 120,267 C117,267 115,265 115,262 C115,265 112,267 110,267 C107,267 105,265 105,262 C105,265 102,267 100,267 C97,267 95,265 95,262 C95,265 92,267 90,267 C87,267 85,265 85,262 C85,265 82,267 80,267 C77,267 75,265 75,262 C75,265 72,267 70,267 C67,267 65,265 65,262 C65,265 62,267 60,267 C57,267 55,265 55,262 C55,265 52,267 50,267 C47,267 45,265 45,262 C45,265 42,267 40,267 C37,267 35,265 35,262 C35,265 32,267 30,267 C27,267 25,265 25,262 C22,262 20,260 20,257 C20,254 22,252 25,252 C22,252 20,250 20,247 C20,244 22,242 25,242 C22,242 20,240 20,237 C20,234 22,232 25,232 C22,232 20,230 20,227 C20,224 22,222 25,222 C22,222 20,220 20,217 C20,214 22,212 25,212 C22,212 20,210 20,207 C20,204 22,202 25,202 C22,202 20,200 20,197 C20,194 22,192 25,192 C22,192 20,190 20,187 C20,184 22,182 25,182 " fill="#FFFFFF" filter="url(#f1)" style="stroke: #000000; stroke-width: 2.0;"/><text fill="#000000" font-family="sans-serif" font-size="14" font-weight="bold" lengthAdjust="spacingAndGlyphs" textLength="68" x="71.5" y="201.5352">LowerEnv</text><path d="M216,182 C216,179 218,177 221,177 C224,177 226,179 226,182 C226,179 228,177 231,177 C234,177 236,179 236,182 C236,179 238,177 241,177 C244,177 246,179 246,182 C246,179 248,177 251,177 C254,177 256,179 256,182 C256,179 258,177 261,177 C264,177 266,179 266,182 C266,179 268,177 271,177 C274,177 276,179 276,182 C276,179 278,177 281,177 C284,177 286,179 286,182 C286,179 288,177 291,177 C294,177 296,179 296,182 C296,179 298,177 301,177 C304,177 306,179 306,182 C306,179 308,177 311,177 C314,177 316,179 316,182 C316,179 318,177 321,177 C324,177 326,179 326,182 C326,179 328,177 331,177 C334,177 336,179 336,182 C336,179 338,177 341,177 C344,177 346,179 346,182 C346,179 348,177 351,177 C354,177 356,179 356,182 C356,179 358,177 361,177 C364,177 366,179 366,182 C366,179 368,177 371,177 C374,177 376,179 376,182 C376,179 378,177 381,177 C384,177 386,179 386,182 C386,179 388,177 391,177 C394,177 396,179 396,182 C396,179 398,177 401,177 C404,177 406,179 406,182 C406,179 408,177 411,177 C414,177 416,179 416,182 C416,179 418,177 421,177 C424,177 426,179 426,182 C426,179 428,177 431,177 C434,177 436,179 436,182 C436,179 438,177 441,177 C444,177 446,179 446,182 C446,179 448,177 451,177 C454,177 456,179 456,182 C456,179 458,177 461,177 C464,177 466,179 466,182 C466,179 468,177 471,177 C474,177 476,179 476,182 C479,182 481,184 481,187 C481,190 479,192 476,192 C479,192 481,194 481,197 C481,200 479,202 476,202 C479,202 481,204 481,207 C481,210 479,212 476,212 C479,212 481,214 481,217 C481,220 479,222 476,222 C479,222 481,224 481,227 C481,230 479,232 476,232 C479,232 481,234 481,237 C481,240 479,242 476,242 C479,242 481,244 481,247 C481,250 479,252 476,252 C479,252 481,254 481,257 C481,260 479,262 476,262 C476,265 473,267 471,267 C468,267 466,265 466,262 C466,265 463,267 461,267 C458,267 456,265 456,262 C456,265 453,267 451,267 C448,267 446,265 446,262 C446,265 443,267 441,267 C438,267 436,265 436,262 C436,265 433,267 431,267 C428,267 426,265 426,262 C426,265 423,267 421,267 C418,267 416,265 416,262 C416,265 413,267 411,267 C408,267 406,265 406,262 C406,265 403,267 401,267 C398,267 396,265 396,262 C396,265 393,267 391,267 C388,267 386,265 386,262 C386,265 383,267 381,267 C378,267 376,265 376,262 C376,265 373,267 371,267 C368,267 366,265 366,262 C366,265 363,267 361,267 C358,267 356,265 356,262 C356,265 353,267 351,267 C348,267 346,265 346,262 C346,265 343,267 341,267 C338,267 336,265 336,262 C336,265 333,267 331,267 C328,267 326,265 326,262 C326,265 323,267 321,267 C318,267 316,265 316,262 C316,265 313,267 311,267 C308,267 306,265 306,262 C306,265 303,267 301,267 C298,267 296,265 296,262 C296,265 293,267 291,267 C288,267 286,265 286,262 C286,265 283,267 281,267 C278,267 276,265 276,262 C276,265 273,267 271,267 C268,267 266,265 266,262 C266,265 263,267 261,267 C258,267 256,265 256,262 C256,265 253,267 251,267 C248,267 246,265 246,262 C246,265 243,267 241,267 C238,267 236,265 236,262 C236,265 233,267 231,267 C228,267 226,265 226,262 C226,265 223,267 221,267 C218,267 216,265 216,262 C213,262 211,260 211,257 C211,254 213,252 216,252 C213,252 211,250 211,247 C211,244 213,242 216,242 C213,242 211,240 211,237 C211,234 213,232 216,232 C213,232 211,230 211,227 C211,224 213,222 216,222 C213,222 211,220 211,217 C211,214 213,212 216,212 C213,212 211,210 211,207 C211,204 213,202 216,202 C213,202 211,200 211,197 C211,194 213,192 216,192 C213,192 211,190 211,187 C211,184 213,182 216,182 " fill="#FFFFFF" filter="url(#f1)" style="stroke: #000000; stroke-width: 2.0;"/><text fill="#000000" font-family="sans-serif" font-size="14" font-weight="bold" lengthAdjust="spacingAndGlyphs" textLength="96" x="296" y="201.5352">Workstations</text><path d="M123,220 C123,210 148,210 148,210 C148,210 173,210 173,220 L173,241.4883 C173,251.4883 148,251.4883 148,251.4883 C148,251.4883 123,251.4883 123,241.4883 L123,220 " fill="#FEFECE" filter="url(#f1)" style="stroke: #000000; stroke-width: 1.5;"/><path d="M123,220 C123,230 148,230 148,230 C148,230 173,230 173,220 " fill="none" style="stroke: #000000; stroke-width: 1.5;"/><text fill="#000000" font-family="sans-serif" font-size="14" lengthAdjust="spacingAndGlyphs" textLength="30" x="133" y="243.5352">beta</text><path d="M38.5,220 C38.5,210 63,210 63,210 C63,210 87.5,210 87.5,220 L87.5,241.4883 C87.5,251.4883 63,251.4883 63,251.4883 C63,251.4883 38.5,251.4883 38.5,241.4883 L38.5,220 " fill="#FEFECE" filter="url(#f1)" style="stroke: #000000; stroke-width: 1.5;"/><path d="M38.5,220 C38.5,230 63,230 63,230 C63,230 87.5,230 87.5,220 " fill="none" style="stroke: #000000; stroke-width: 1.5;"/><text fill="#000000" font-family="sans-serif" font-size="14" lengthAdjust="spacingAndGlyphs" textLength="29" x="48.5" y="243.5352">UAT</text><path d="M405.5,220 C405.5,210 432,210 432,210 C432,210 458.5,210 458.5,220 L458.5,241.4883 C458.5,251.4883 432,251.4883 432,251.4883 C432,251.4883 405.5,251.4883 405.5,241.4883 L405.5,220 " fill="#FEFECE" filter="url(#f1)" style="stroke: #000000; stroke-width: 1.5;"/><path d="M405.5,220 C405.5,230 432,230 432,230 C432,230 458.5,230 458.5,220 " fill="none" style="stroke: #000000; stroke-width: 1.5;"/><text fill="#000000" font-family="sans-serif" font-size="14" lengthAdjust="spacingAndGlyphs" textLength="33" x="415.5" y="243.5352">dev1</text><path d="M317.5,220 C317.5,210 344,210 344,210 C344,210 370.5,210 370.5,220 L370.5,241.4883 C370.5,251.4883 344,251.4883 344,251.4883 C344,251.4883 317.5,251.4883 317.5,241.4883 L317.5,220 " fill="#FEFECE" filter="url(#f1)" style="stroke: #000000; stroke-width: 1.5;"/><path d="M317.5,220 C317.5,230 344,230 344,230 C344,230 370.5,230 370.5,220 " fill="none" style="stroke: #000000; stroke-width: 1.5;"/><text fill="#000000" font-family="sans-serif" font-size="14" lengthAdjust="spacingAndGlyphs" textLength="33" x="327.5" y="243.5352">dev2</text><path d="M229.5,220 C229.5,210 256,210 256,210 C256,210 282.5,210 282.5,220 L282.5,241.4883 C282.5,251.4883 256,251.4883 256,251.4883 C256,251.4883 229.5,251.4883 229.5,241.4883 L229.5,220 " fill="#FEFECE" filter="url(#f1)" style="stroke: #000000; stroke-width: 1.5;"/><path d="M229.5,220 C229.5,230 256,230 256,230 C256,230 282.5,230 282.5,220 " fill="none" style="stroke: #000000; stroke-width: 1.5;"/><text fill="#000000" font-family="sans-serif" font-size="14" lengthAdjust="spacingAndGlyphs" textLength="33" x="239.5" y="243.5352">dev3</text><path d="M216,18 C216,8 256,8 256,8 C256,8 296,8 296,18 L296,39.4883 C296,49.4883 256,49.4883 256,49.4883 C256,49.4883 216,49.4883 216,39.4883 L216,18 " fill="#FEFECE" filter="url(#f1)" style="stroke: #000000; stroke-width: 1.5;"/><path d="M216,18 C216,28 256,28 256,28 C256,28 296,28 296,18 " fill="none" style="stroke: #000000; stroke-width: 1.5;"/><text fill="#000000" font-family="sans-serif" font-size="14" lengthAdjust="spacingAndGlyphs" textLength="60" x="226" y="41.5352">prodpub</text><path d="M235,119 C235,109 256,109 256,109 C256,109 277,109 277,119 L277,140.4883 C277,150.4883 256,150.4883 256,150.4883 C256,150.4883 235,150.4883 235,140.4883 L235,119 " fill="#FEFECE" filter="url(#f1)" style="stroke: #000000; stroke-width: 1.5;"/><path d="M235,119 C235,129 256,129 256,129 C256,129 277,129 277,119 " fill="none" style="stroke: #000000; stroke-width: 1.5;"/><text fill="#000000" font-family="sans-serif" font-size="14" lengthAdjust="spacingAndGlyphs" textLength="22" x="245" y="142.5352">DW</text><path d="M256,49.059 C256,64.788 256,86.978 256,103.909 " fill="none" style="stroke: #A80036; stroke-width: 1.0;"/><polygon fill="#A80036" points="256,108.981,260,99.981,256,103.981,252,99.981,256,108.981" style="stroke: #A80036; stroke-width: 1.0;"/><path d="M234.779,148.065 C227.765,153.989 219.975,160.698 213,167 C199,179.651 183.774,194.2437 171.58,206.1456 " fill="none" style="stroke: #A80036; stroke-width: 1.0;"/><polygon fill="#A80036" points="167.898,209.7478,177.1284,206.3128,171.4719,206.251,171.5336,200.5945,167.898,209.7478" style="stroke: #A80036; stroke-width: 1.0;"/><path d="M234.949,130.988 C204.066,132.662 145.833,139.548 106,167 C92.1883,176.519 81.4765,192.0355 74.1987,205.2262 " fill="none" style="stroke: #A80036; stroke-width: 1.0;"/><polygon fill="#A80036" points="71.6734,209.9653,79.4359,203.9037,74.0248,205.5527,72.3758,200.1415,71.6734,209.9653" style="stroke: #A80036; stroke-width: 1.0;"/><path d="M277.065,131.954 C304.789,134.782 353.981,143.041 388,167 C401.721,176.663 412.624,192.0322 420.144,205.1111 " fill="none" style="stroke: #A80036; stroke-width: 1.0;"/><polygon fill="#A80036" points="422.76,209.8112,421.877,200.002,420.3278,205.4426,414.8872,203.8935,422.76,209.8112" style="stroke: #A80036; stroke-width: 1.0;"/><path d="M277.153,146.161 C284.75,152.259 293.13,159.564 300,167 C310.907,178.806 321.343,193.4316 329.312,205.5659 " fill="none" style="stroke: #A80036; stroke-width: 1.0;"/><polygon fill="#A80036" points="332.133,209.9138,330.5918,200.1863,329.4123,205.7188,323.8798,204.5394,332.133,209.9138" style="stroke: #A80036; stroke-width: 1.0;"/><path d="M256,150.059 C256,165.788 256,187.9776 256,204.9087 " fill="none" style="stroke: #A80036; stroke-width: 1.0;"/><polygon fill="#A80036" points="256,209.9814,260,200.9814,256,204.9814,252,200.9814,256,209.9814" style="stroke: #A80036; stroke-width: 1.0;"/></g></svg>